<?xml version="1.0" standalone="no"?>
<!DOCTYPE svg PUBLIC "-//W3C//DTD SVG 20010904//EN"
 "http://www.w3.org/TR/2001/REC-SVG-20010904/DTD/svg10.dtd">
<svg version="1.0" xmlns="http://www.w3.org/2000/svg"
 width="1300.000000pt" height="1300.000000pt" viewBox="0 0 1300.000000 1300.000000"
 preserveAspectRatio="xMidYMid meet">

<g transform="translate(0.000000,1300.000000) scale(0.100000,-0.100000)"
fill="#000000" stroke="none">
<path d="M6316 10639 c-104 -82 -191 -151 -194 -154 -3 -3 3 -15 14 -27 19
-23 18 -23 -8 0 -17 16 -28 20 -33 12 -3 -6 -52 -46 -108 -90 -56 -43 -149
-116 -207 -161 -58 -46 -136 -107 -174 -136 l-68 -53 956 0 c526 0 956 2 956
5 0 2 -66 57 -147 122 -82 64 -203 161 -271 215 -67 54 -126 98 -130 98 -4 0
-14 -6 -22 -12 -12 -11 -12 -10 -1 5 8 9 12 19 10 21 -2 2 -51 41 -109 88 -58
46 -130 104 -160 128 -30 25 -68 55 -85 66 l-30 22 -189 -149z m534 -212 c0
-2 -10 -12 -22 -23 l-23 -19 19 23 c18 21 26 27 26 19z m-650 -32 c13 -14 21
-25 18 -25 -2 0 -15 11 -28 25 -13 14 -21 25 -18 25 2 0 15 -11 28 -25z m570
-48 c0 -2 -10 -12 -22 -23 l-23 -19 19 23 c18 21 26 27 26 19z m-490 -32 c13
-14 21 -25 18 -25 -2 0 -15 11 -28 25 -13 14 -21 25 -18 25 2 0 15 -11 28 -25z
m76 -77 l29 -33 -32 29 c-18 17 -33 31 -33 33 0 8 8 1 36 -29z m334 29 c0 -2
-10 -12 -22 -23 l-23 -19 19 23 c18 21 26 27 26 19z m-80 -80 c0 -2 -10 -12
-22 -23 l-23 -19 19 23 c18 21 26 27 26 19z m-170 -32 c13 -14 21 -25 18 -25
-2 0 -15 11 -28 25 -13 14 -21 25 -18 25 2 0 15 -11 28 -25z m87 -52 c-16 -16
-15 -19 6 -43 l22 -25 -27 24 c-26 23 -27 26 -11 43 9 10 19 18 22 18 3 0 -2
-8 -12 -17z"/>
<path d="M5460 9860 c-31 -24 -180 -139 -415 -320 -99 -76 -225 -174 -280
-217 -55 -43 -219 -170 -365 -283 -146 -112 -355 -274 -465 -359 -110 -86
-221 -172 -246 -191 -25 -19 -159 -123 -298 -230 l-252 -195 798 -3 798 -2
195 198 c107 108 274 278 370 377 202 208 382 393 855 879 187 191 342 352
343 357 2 5 -40 9 -94 9 -93 0 -100 -1 -128 -27 l-31 -28 24 28 24 27 -404 0
c-387 0 -406 -1 -429 -20z m750 -73 c0 -2 -10 -12 -22 -23 l-23 -19 19 23 c18
21 26 27 26 19z m-80 -80 c0 -2 -10 -12 -22 -23 l-23 -19 19 23 c18 21 26 27
26 19z m-80 -80 c0 -2 -12 -14 -27 -28 l-28 -24 24 28 c23 25 31 32 31 24z
m-80 -80 c0 -2 -12 -14 -27 -28 l-28 -24 24 28 c23 25 31 32 31 24z m-80 -80
c0 -2 -10 -12 -22 -23 l-23 -19 19 23 c18 21 26 27 26 19z m-80 -80 c0 -2 -10
-12 -22 -23 l-23 -19 19 23 c18 21 26 27 26 19z m-80 -80 c0 -2 -10 -12 -22
-23 l-23 -19 19 23 c18 21 26 27 26 19z m-80 -80 c0 -2 -10 -12 -22 -23 l-23
-19 19 23 c18 21 26 27 26 19z m-80 -80 c0 -2 -10 -12 -22 -23 l-23 -19 19 23
c18 21 26 27 26 19z m-70 -70 c0 -2 -12 -14 -27 -28 l-28 -24 24 28 c23 25 31
32 31 24z"/>
<path d="M6522 9871 c4 -11 422 -444 742 -768 121 -123 222 -227 225 -232 5
-7 613 -630 749 -767 l44 -44 796 0 797 1 -35 30 c-19 16 -60 49 -90 72 -30
23 -75 58 -100 78 -25 20 -144 112 -265 206 -121 93 -394 304 -607 469 -212
164 -462 357 -555 429 -92 71 -249 192 -348 269 -99 77 -217 169 -263 203
l-84 63 -406 0 -406 0 35 -37 34 -38 -40 38 -41 37 -93 0 c-53 0 -91 -4 -89
-9z m318 -116 c13 -14 21 -25 18 -25 -2 0 -15 11 -28 25 -13 14 -21 25 -18 25
2 0 15 -11 28 -25z m76 -77 l29 -33 -32 29 c-31 28 -38 36 -30 36 2 0 16 -15
33 -32z m80 -80 l29 -33 -32 29 c-31 28 -38 36 -30 36 2 0 16 -15 33 -32z m84
-83 c13 -14 21 -25 18 -25 -2 0 -15 11 -28 25 -13 14 -21 25 -18 25 2 0 15
-11 28 -25z m76 -77 l29 -33 -32 29 c-31 28 -38 36 -30 36 2 0 16 -15 33 -32z
m84 -83 c13 -14 21 -25 18 -25 -2 0 -15 11 -28 25 -13 14 -21 25 -18 25 2 0
15 -11 28 -25z m76 -77 l29 -33 -32 29 c-31 28 -38 36 -30 36 2 0 16 -15 33
-32z m84 -83 c13 -14 21 -25 18 -25 -2 0 -15 11 -28 25 -13 14 -21 25 -18 25
2 0 15 -11 28 -25z"/>
<path d="M6389 9443 c-63 -70 -141 -157 -174 -193 -91 -99 -304 -335 -470
-520 -81 -91 -164 -183 -184 -205 -20 -22 -119 -132 -220 -245 -101 -113 -196
-217 -210 -232 l-25 -28 1403 0 1403 0 -68 77 c-77 87 -316 353 -434 483 -138
152 -478 530 -687 763 -112 125 -208 227 -212 227 -5 0 -60 -57 -122 -127z"/>
<path d="M3870 6120 l0 -1750 2640 0 2640 0 0 1750 0 1750 -2640 0 -2640 0 0
-1750z m1625 1410 c10 -11 16 -20 13 -20 -3 0 -13 9 -23 20 -10 11 -16 20 -13
20 3 0 13 -9 23 -20z m3616 -27 c13 -16 12 -17 -3 -4 -10 7 -18 15 -18 17 0 8
8 3 21 -13z m-3536 -53 c10 -11 16 -20 13 -20 -3 0 -13 9 -23 20 -10 11 -16
20 -13 20 3 0 13 -9 23 -20z m1905 16 c0 -2 -8 -10 -17 -17 -16 -13 -17 -12
-4 4 13 16 21 21 21 13z m-1825 -96 c10 -11 16 -20 13 -20 -3 0 -13 9 -23 20
-10 11 -16 20 -13 20 3 0 13 -9 23 -20z m1745 16 c0 -2 -8 -10 -17 -17 -16
-13 -17 -12 -4 4 13 16 21 21 21 13z m-1665 -96 c10 -11 16 -20 13 -20 -3 0
-13 9 -23 20 -10 11 -16 20 -13 20 3 0 13 -9 23 -20z m1585 16 c0 -2 -8 -10
-17 -17 -16 -13 -17 -12 -4 4 13 16 21 21 21 13z m-1505 -96 c10 -11 16 -20
13 -20 -3 0 -13 9 -23 20 -10 11 -16 20 -13 20 3 0 13 -9 23 -20z m1425 16 c0
-2 -8 -10 -17 -17 -16 -13 -17 -12 -4 4 13 16 21 21 21 13z m-1345 -96 c10
-11 16 -20 13 -20 -3 0 -13 9 -23 20 -10 11 -16 20 -13 20 3 0 13 -9 23 -20z
m1265 16 c0 -2 -8 -10 -17 -17 -16 -13 -17 -12 -4 4 13 16 21 21 21 13z m-80
-80 c0 -2 -8 -10 -17 -17 -16 -13 -17 -12 -4 4 13 16 21 21 21 13z m-1025 -96
c10 -11 16 -20 13 -20 -3 0 -13 9 -23 20 -10 11 -16 20 -13 20 3 0 13 -9 23
-20z m945 16 c0 -2 -8 -10 -17 -17 -16 -13 -17 -12 -4 4 13 16 21 21 21 13z
m-94 -95 l-27 -28 92 -17 c191 -35 468 -140 664 -253 76 -44 268 -177 306
-212 10 -9 47 -41 83 -71 35 -30 67 -62 71 -69 4 -10 -24 -45 -82 -103 l-88
-88 -50 48 c-506 480 -1260 658 -1945 460 -127 -36 -317 -117 -434 -184 -103
-58 -274 -184 -360 -265 l-62 -58 -89 89 -89 90 34 36 c119 124 358 293 545
386 183 91 413 170 575 198 95 16 96 16 74 43 l-19 22 25 -22 c23 -20 30 -21
100 -12 108 14 428 14 544 -1 l99 -12 26 26 c35 35 41 33 7 -3z m-451 -321
c10 -11 16 -20 13 -20 -3 0 -13 9 -23 20 -10 11 -16 20 -13 20 3 0 13 -9 23
-20z m145 16 c0 -2 -8 -10 -17 -17 -16 -13 -17 -12 -4 4 13 16 21 21 21 13z
m-40 -39 c0 -2 -19 -21 -42 -42 -24 -22 -35 -31 -26 -20 17 18 17 20 0 39 -17
21 -17 21 4 3 20 -16 22 -16 39 3 17 19 25 24 25 17z m-9 -74 c13 -16 12 -17
-3 -4 -10 7 -18 15 -18 17 0 8 8 3 21 -13z m-111 -46 c0 -2 -10 -12 -22 -23
l-23 -19 19 23 c18 21 26 27 26 19z m175 -17 c10 -11 16 -20 13 -20 -3 0 -13
9 -23 20 -10 11 -16 20 -13 20 3 0 13 -9 23 -20z m124 -56 c316 -46 590 -160
836 -346 103 -78 185 -151 185 -164 0 -13 -162 -174 -175 -174 -6 0 -24 14
-41 31 -42 45 -178 149 -253 194 -73 43 -249 125 -270 125 -10 0 -7 -8 10 -27
l24 -28 -27 24 c-15 13 -25 27 -23 31 7 11 -124 50 -242 71 -145 26 -371 26
-525 0 -143 -25 -163 -32 -218 -84 -41 -39 -42 -39 -10 -4 40 44 34 45 -54 12
-183 -69 -387 -198 -518 -327 -10 -10 -21 -18 -26 -18 -13 0 -175 167 -171
177 2 6 31 35 64 65 195 178 438 313 696 387 94 27 236 55 329 64 98 10 313 5
409 -9z m-779 -408 c0 -2 -8 -10 -17 -17 -16 -13 -17 -12 -4 4 13 16 21 21 21
13z m1135 -16 c10 -11 16 -20 13 -20 -3 0 -13 9 -23 20 -10 11 -16 20 -13 20
3 0 13 -9 23 -20z m-346 -74 c210 -46 412 -148 559 -282 l53 -49 -89 -89 -89
-88 -84 66 c-193 153 -433 227 -670 206 -115 -10 -167 -20 -249 -48 -108 -37
-238 -115 -322 -190 -45 -40 -37 -44 -146 68 l-73 75 58 53 c153 141 386 252
600 287 111 18 349 13 452 -9z m-869 10 c0 -2 -8 -10 -17 -17 -16 -13 -17 -12
-4 4 13 16 21 21 21 13z m1295 -16 c10 -11 16 -20 13 -20 -3 0 -13 9 -23 20
-10 11 -16 20 -13 20 3 0 13 -9 23 -20z m-1375 -64 c0 -2 -8 -10 -17 -17 -16
-13 -17 -12 -4 4 13 16 21 21 21 13z m1455 -16 c10 -11 16 -20 13 -20 -3 0
-13 9 -23 20 -10 11 -16 20 -13 20 3 0 13 -9 23 -20z m-1535 -64 c0 -2 -8 -10
-17 -17 -16 -13 -17 -12 -4 4 13 16 21 21 21 13z m1615 -16 c10 -11 16 -20 13
-20 -3 0 -13 9 -23 20 -10 11 -16 20 -13 20 3 0 13 -9 23 -20z m-1695 -64 c0
-2 -8 -10 -17 -17 -16 -13 -17 -12 -4 4 13 16 21 21 21 13z m1775 -16 c10 -11
16 -20 13 -20 -3 0 -13 9 -23 20 -10 11 -16 20 -13 20 3 0 13 -9 23 -20z
m-1855 -64 c0 -2 -8 -10 -17 -17 -16 -13 -17 -12 -4 4 13 16 21 21 21 13z
m1935 -16 c10 -11 16 -20 13 -20 -3 0 -13 9 -23 20 -10 11 -16 20 -13 20 3 0
13 -9 23 -20z m70 -70 c10 -11 16 -20 13 -20 -3 0 -13 9 -23 20 -10 11 -16 20
-13 20 3 0 13 -9 23 -20z m-2085 6 c0 -2 -8 -10 -17 -17 -16 -13 -17 -12 -4 4
13 16 21 21 21 13z"/>
<path d="M3024 4211 c-158 -40 -220 -138 -212 -335 7 -172 32 -209 248 -357
142 -97 147 -103 156 -198 8 -72 -8 -118 -42 -127 -58 -15 -74 19 -74 152 l0
94 -141 0 -142 0 5 -122 c6 -141 22 -192 74 -238 77 -67 173 -95 303 -87 143
8 240 58 282 145 31 63 38 219 15 323 -20 86 -33 110 -90 162 -40 37 -62 52
-212 151 -81 52 -98 81 -96 158 1 57 22 88 58 88 33 0 44 -28 44 -109 l0 -71
140 0 140 0 0 98 c-1 149 -43 216 -163 257 -57 20 -240 30 -293 16z m466 -754
c0 -2 -10 -12 -22 -23 l-23 -19 19 23 c18 21 26 27 26 19z m-70 -70 c0 -2 -15
-16 -32 -33 l-33 -29 29 33 c28 30 36 37 36 29z m-80 -80 c0 -2 -12 -14 -27
-28 l-28 -24 24 28 c23 25 31 32 31 24z m-80 -80 c0 -2 -12 -14 -27 -28 l-28
-24 24 28 c23 25 31 32 31 24z m-70 -70 c0 -2 -15 -16 -32 -33 l-33 -29 29 33
c28 30 36 37 36 29z m-80 -80 c0 -2 -15 -16 -32 -33 l-33 -29 29 33 c28 30 36
37 36 29z"/>
<path d="M8010 4211 c-99 -22 -178 -83 -219 -171 l-26 -55 -3 -334 c-5 -440 6
-496 109 -585 54 -45 115 -66 215 -73 174 -12 296 50 356 182 22 48 23 61 26
382 4 389 -2 451 -53 527 -61 90 -139 127 -280 132 -49 1 -106 -1 -125 -5z
m147 -213 c11 -32 4 -767 -8 -790 -13 -24 -55 -23 -69 1 -6 13 -10 156 -10
396 0 240 4 383 10 396 15 28 66 26 77 -3z"/>
<path d="M3610 3611 c0 -460 3 -590 13 -592 6 -2 66 -4 132 -4 l120 0 4 365 3
365 34 -225 c18 -124 41 -279 50 -345 24 -171 14 -159 122 -160 51 0 92 0 92
0 0 0 22 167 50 370 27 204 51 375 52 380 2 6 5 -161 8 -370 l5 -380 130 0
130 0 0 590 0 589 -197 4 -197 4 -5 -24 c-5 -22 -16 -100 -52 -393 -8 -66 -16
-121 -18 -122 -2 -3 -16 89 -63 417 -8 57 -17 108 -19 112 -3 4 -93 8 -200 8
l-194 0 0 -589z m220 186 c0 -2 -15 -16 -32 -33 l-33 -29 29 33 c28 30 36 37
36 29z m-90 -90 c0 -2 -15 -16 -32 -33 l-33 -29 29 33 c28 30 36 37 36 29z
m-70 -70 c0 -2 -10 -12 -22 -23 l-23 -19 19 23 c18 21 26 27 26 19z"/>
<path d="M4761 4136 c-10 -58 -17 -110 -61 -451 -11 -82 -35 -265 -54 -405
-19 -140 -33 -256 -31 -259 5 -4 308 -2 312 3 2 1 6 47 10 102 l8 99 57 3 56
3 7 -105 7 -105 149 -3 c82 -2 153 -2 157 0 8 2 -11 145 -68 522 -12 74 -36
243 -55 375 -19 132 -37 250 -40 263 l-6 23 -218 -2 -219 -1 -11 -62z m284
-652 l6 -44 -56 0 -55 0 5 38 c2 20 14 114 25 207 12 94 24 181 27 195 4 14
14 -57 24 -164 9 -104 20 -208 24 -232z"/>
<path d="M5440 3611 l0 -591 83 -2 c45 -1 115 -3 155 -3 l73 0 -3 271 -3 271
35 -9 c19 -6 40 -14 45 -19 6 -6 12 -114 15 -262 l5 -252 109 -3 c60 -2 124
-1 143 3 l33 6 0 71 c0 60 -4 76 -22 97 l-23 26 24 -20 24 -20 -5 167 c-6 198
-14 219 -95 258 -56 27 -66 40 -30 40 36 0 87 38 104 78 12 27 16 69 16 157 1
104 -3 127 -23 173 -30 69 -86 117 -154 132 -28 6 -153 14 -278 17 l-228 6 0
-592z m384 363 c12 -12 16 -37 16 -108 0 -104 -8 -122 -57 -132 l-33 -6 0 131
0 131 29 0 c16 0 37 -7 45 -16z m-349 -144 c10 -11 16 -20 13 -20 -3 0 -13 9
-23 20 -10 11 -16 20 -13 20 3 0 13 -9 23 -20z m160 -160 c10 -11 16 -20 13
-20 -3 0 -13 9 -23 20 -10 11 -16 20 -13 20 3 0 13 -9 23 -20z m80 -80 c10
-11 16 -20 13 -20 -3 0 -13 9 -23 20 -10 11 -16 20 -13 20 3 0 13 -9 23 -20z
m160 -160 c10 -11 16 -20 13 -20 -3 0 -13 9 -23 20 -10 11 -16 20 -13 20 3 0
13 -9 23 -20z m80 -80 c10 -11 16 -20 13 -20 -3 0 -13 9 -23 20 -10 11 -16 20
-13 20 3 0 13 -9 23 -20z m80 -80 c10 -11 16 -20 13 -20 -3 0 -13 9 -23 20
-10 11 -16 20 -13 20 3 0 13 -9 23 -20z"/>
<path d="M6190 4080 l0 -120 95 0 95 0 2 -472 3 -471 135 1 c74 0 141 1 148 1
9 1 12 102 12 471 l0 470 95 0 96 0 -3 118 -3 117 -337 3 -338 2 0 -120z"/>
<path d="M6940 3611 l0 -589 138 -4 c75 -2 143 -2 150 0 10 4 12 57 12 245 -1
153 2 242 9 246 5 4 28 5 51 3 l40 -4 0 -243 0 -243 83 -7 c45 -3 114 -5 152
-3 l70 3 3 570 c1 314 0 580 -3 593 -5 22 -8 22 -155 22 l-150 0 -2 -212 -3
-213 -45 0 -45 0 -3 213 -2 212 -150 0 -150 0 0 -589z m570 145 c0 -2 -8 -10
-17 -17 -16 -13 -17 -12 -4 4 13 16 21 21 21 13z m-80 -80 c0 -2 -8 -10 -17
-17 -16 -13 -17 -12 -4 4 13 16 21 21 21 13z m-80 -80 c0 -2 -8 -10 -17 -17
-16 -13 -17 -12 -4 4 13 16 21 21 21 13z m-160 -160 c0 -2 -8 -10 -17 -17 -16
-13 -17 -12 -4 4 13 16 21 21 21 13z m-80 -80 c0 -2 -8 -10 -17 -17 -16 -13
-17 -12 -4 4 13 16 21 21 21 13z m-80 -80 c0 -2 -8 -10 -17 -17 -16 -13 -17
-12 -4 4 13 16 21 21 21 13z"/>
<path d="M8592 3608 l3 -591 128 1 127 1 2 345 c0 190 4 350 8 355 3 6 28
-143 55 -331 26 -189 51 -349 55 -357 6 -10 30 -14 94 -14 48 0 89 2 92 5 4 5
14 72 70 483 29 216 31 234 20 246 -8 9 -8 10 1 5 6 -3 14 0 16 6 3 7 6 4 6
-7 1 -11 56 -76 129 -150 l127 -130 -127 125 -128 125 0 -351 0 -351 38 -7
c48 -8 196 -8 216 0 14 6 16 67 16 595 l0 589 -202 -2 -203 -3 -32 -250 c-18
-137 -32 -259 -33 -269 -1 -50 -12 6 -36 180 -14 104 -31 223 -37 264 l-12 75
-198 3 -197 2 2 -592z"/>
<path d="M9662 3608 l3 -593 145 -2 c79 -1 148 1 153 4 5 3 -60 76 -144 162
l-154 156 166 -163 166 -163 96 2 97 3 0 118 0 118 -110 0 -110 0 0 130 0 130
95 0 95 0 0 115 0 115 -95 0 -95 0 0 110 0 110 100 0 100 0 0 120 0 120 -255
0 -255 0 2 -592z"/>
</g>
</svg>
